<svg id="visual" viewBox="0 0 900 200" width="900" height="200" xmlns="http://www.w3.org/2000/svg" xmlns:xlink="http://www.w3.org/1999/xlink" version="1.1"><path d="M0 170L6.5 168.3C13 166.7 26 163.3 39 165.2C52 167 65 174 78 175.3C91 176.7 104 172.3 117.2 172.3C130.3 172.3 143.7 176.7 156.8 180.2C170 183.7 183 186.3 196 184.3C209 182.3 222 175.7 235 170.7C248 165.7 261 162.3 274 166C287 169.7 300 180.3 313 182.7C326 185 339 179 352 177.7C365 176.3 378 179.7 391 183.7C404 187.7 417 192.3 430.2 190C443.3 187.7 456.7 178.3 469.8 176C483 173.7 496 178.3 509 175.7C522 173 535 163 548 164.7C561 166.3 574 179.7 587 186.5C600 193.3 613 193.7 626 186.8C639 180 652 166 665 159.3C678 152.7 691 153.3 704 154.3C717 155.3 730 156.7 743.2 160.2C756.3 163.7 769.7 169.3 782.8 172.8C796 176.3 809 177.7 822 178.3C835 179 848 179 861 179.7C874 180.3 887 181.7 893.5 182.3L900 183L900 0L893.5 0C887 0 874 0 861 0C848 0 835 0 822 0C809 0 796 0 782.8 0C769.7 0 756.3 0 743.2 0C730 0 717 0 704 0C691 0 678 0 665 0C652 0 639 0 626 0C613 0 600 0 587 0C574 0 561 0 548 0C535 0 522 0 509 0C496 0 483 0 469.8 0C456.7 0 443.3 0 430.2 0C417 0 404 0 391 0C378 0 365 0 352 0C339 0 326 0 313 0C300 0 287 0 274 0C261 0 248 0 235 0C222 0 209 0 196 0C183 0 170 0 156.8 0C143.7 0 130.3 0 117.2 0C104 0 91 0 78 0C65 0 52 0 39 0C26 0 13 0 6.5 0L0 0Z" fill="#3d3d7c"></path><path d="M0 159L6.5 158.5C13 158 26 157 39 155.2C52 153.3 65 150.7 78 153.2C91 155.7 104 163.3 117.2 164C130.3 164.7 143.7 158.3 156.8 156.8C170 155.3 183 158.7 196 156.5C209 154.3 222 146.7 235 144.3C248 142 261 145 274 150.2C287 155.3 300 162.7 313 163.2C326 163.7 339 157.3 352 156.5C365 155.7 378 160.3 391 160.3C404 160.3 417 155.7 430.2 157.3C443.3 159 456.7 167 469.8 167.8C483 168.7 496 162.3 509 157C522 151.7 535 147.3 548 149.5C561 151.7 574 160.3 587 166.2C600 172 613 175 626 171C639 167 652 156 665 153.7C678 151.3 691 157.7 704 160.2C717 162.7 730 161.3 743.2 161.7C756.3 162 769.7 164 782.8 167.8C796 171.7 809 177.3 822 174C835 170.7 848 158.3 861 151.5C874 144.7 887 143.3 893.5 142.7L900 142L900 0L893.5 0C887 0 874 0 861 0C848 0 835 0 822 0C809 0 796 0 782.8 0C769.7 0 756.3 0 743.2 0C730 0 717 0 704 0C691 0 678 0 665 0C652 0 639 0 626 0C613 0 600 0 587 0C574 0 561 0 548 0C535 0 522 0 509 0C496 0 483 0 469.8 0C456.7 0 443.3 0 430.2 0C417 0 404 0 391 0C378 0 365 0 352 0C339 0 326 0 313 0C300 0 287 0 274 0C261 0 248 0 235 0C222 0 209 0 196 0C183 0 170 0 156.8 0C143.7 0 130.3 0 117.2 0C104 0 91 0 78 0C65 0 52 0 39 0C26 0 13 0 6.5 0L0 0Z" fill="#373774"></path><path d="M0 143L6.5 144C13 145 26 147 39 149.3C52 151.7 65 154.3 78 156.8C91 159.3 104 161.7 117.2 159.3C130.3 157 143.7 150 156.8 146.7C170 143.3 183 143.7 196 141.5C209 139.3 222 134.7 235 138C248 141.3 261 152.7 274 159C287 165.3 300 166.7 313 163.8C326 161 339 154 352 151C365 148 378 149 391 151.5C404 154 417 158 430.2 160.2C443.3 162.3 456.7 162.7 469.8 161.3C483 160 496 157 509 153.5C522 150 535 146 548 146.7C561 147.3 574 152.7 587 154.8C600 157 613 156 626 155.7C639 155.3 652 155.7 665 151.8C678 148 691 140 704 136C717 132 730 132 743.2 133.7C756.3 135.3 769.7 138.7 782.8 142.7C796 146.7 809 151.3 822 152.8C835 154.3 848 152.7 861 147.3C874 142 887 133 893.5 128.5L900 124L900 0L893.5 0C887 0 874 0 861 0C848 0 835 0 822 0C809 0 796 0 782.8 0C769.7 0 756.3 0 743.2 0C730 0 717 0 704 0C691 0 678 0 665 0C652 0 639 0 626 0C613 0 600 0 587 0C574 0 561 0 548 0C535 0 522 0 509 0C496 0 483 0 469.8 0C456.7 0 443.3 0 430.2 0C417 0 404 0 391 0C378 0 365 0 352 0C339 0 326 0 313 0C300 0 287 0 274 0C261 0 248 0 235 0C222 0 209 0 196 0C183 0 170 0 156.8 0C143.7 0 130.3 0 117.2 0C104 0 91 0 78 0C65 0 52 0 39 0C26 0 13 0 6.5 0L0 0Z" fill="#31316d"></path><path d="M0 147L6.5 144.8C13 142.7 26 138.3 39 133C52 127.7 65 121.3 78 118.5C91 115.7 104 116.3 117.2 118.2C130.3 120 143.7 123 156.8 124.5C170 126 183 126 196 124.3C209 122.7 222 119.3 235 119.3C248 119.3 261 122.7 274 124.7C287 126.7 300 127.3 313 126.3C326 125.3 339 122.7 352 125.8C365 129 378 138 391 143.2C404 148.3 417 149.7 430.2 149.8C443.3 150 456.7 149 469.8 144C483 139 496 130 509 126.3C522 122.7 535 124.3 548 123.3C561 122.3 574 118.7 587 117.3C600 116 613 117 626 118.7C639 120.3 652 122.7 665 122.8C678 123 691 121 704 124.7C717 128.3 730 137.7 743.2 141C756.3 144.3 769.7 141.7 782.8 141.7C796 141.7 809 144.3 822 142.8C835 141.3 848 135.7 861 132.8C874 130 887 130 893.5 130L900 130L900 0L893.5 0C887 0 874 0 861 0C848 0 835 0 822 0C809 0 796 0 782.8 0C769.7 0 756.3 0 743.2 0C730 0 717 0 704 0C691 0 678 0 665 0C652 0 639 0 626 0C613 0 600 0 587 0C574 0 561 0 548 0C535 0 522 0 509 0C496 0 483 0 469.8 0C456.7 0 443.3 0 430.2 0C417 0 404 0 391 0C378 0 365 0 352 0C339 0 326 0 313 0C300 0 287 0 274 0C261 0 248 0 235 0C222 0 209 0 196 0C183 0 170 0 156.8 0C143.7 0 130.3 0 117.2 0C104 0 91 0 78 0C65 0 52 0 39 0C26 0 13 0 6.5 0L0 0Z" fill="#2b2c65"></path><path d="M0 110L6.5 113.7C13 117.3 26 124.7 39 123.7C52 122.7 65 113.3 78 110.8C91 108.3 104 112.7 117.2 118.2C130.3 123.7 143.7 130.3 156.8 132.7C170 135 183 133 196 128.8C209 124.7 222 118.3 235 117.5C248 116.7 261 121.3 274 122.8C287 124.3 300 122.7 313 118.3C326 114 339 107 352 107.8C365 108.7 378 117.3 391 121.5C404 125.7 417 125.3 430.2 120.7C443.3 116 456.7 107 469.8 108.3C483 109.7 496 121.3 509 125.7C522 130 535 127 548 124.8C561 122.7 574 121.3 587 120.8C600 120.3 613 120.7 626 121.8C639 123 652 125 665 125.7C678 126.3 691 125.7 704 122.7C717 119.7 730 114.3 743.2 109.8C756.3 105.3 769.7 101.7 782.8 99.8C796 98 809 98 822 102.8C835 107.7 848 117.3 861 123.8C874 130.3 887 133.7 893.5 135.3L900 137L900 0L893.5 0C887 0 874 0 861 0C848 0 835 0 822 0C809 0 796 0 782.8 0C769.7 0 756.3 0 743.2 0C730 0 717 0 704 0C691 0 678 0 665 0C652 0 639 0 626 0C613 0 600 0 587 0C574 0 561 0 548 0C535 0 522 0 509 0C496 0 483 0 469.8 0C456.7 0 443.3 0 430.2 0C417 0 404 0 391 0C378 0 365 0 352 0C339 0 326 0 313 0C300 0 287 0 274 0C261 0 248 0 235 0C222 0 209 0 196 0C183 0 170 0 156.8 0C143.7 0 130.3 0 117.2 0C104 0 91 0 78 0C65 0 52 0 39 0C26 0 13 0 6.5 0L0 0Z" fill="#25265e"></path><path d="M0 109L6.5 110.7C13 112.3 26 115.7 39 115.5C52 115.3 65 111.7 78 111.5C91 111.3 104 114.7 117.2 115C130.3 115.3 143.7 112.7 156.8 109.2C170 105.7 183 101.3 196 99C209 96.7 222 96.3 235 96.5C248 96.7 261 97.3 274 99.8C287 102.3 300 106.7 313 105.8C326 105 339 99 352 99C365 99 378 105 391 104C404 103 417 95 430.2 96.7C443.3 98.3 456.7 109.7 469.8 111.2C483 112.7 496 104.3 509 103.7C522 103 535 110 548 108.3C561 106.7 574 96.3 587 94.2C600 92 613 98 626 100.5C639 103 652 102 665 100.5C678 99 691 97 704 95.2C717 93.3 730 91.7 743.2 90.5C756.3 89.3 769.7 88.7 782.8 91.3C796 94 809 100 822 101.5C835 103 848 100 861 97.3C874 94.7 887 92.3 893.5 91.2L900 90L900 0L893.5 0C887 0 874 0 861 0C848 0 835 0 822 0C809 0 796 0 782.8 0C769.7 0 756.3 0 743.2 0C730 0 717 0 704 0C691 0 678 0 665 0C652 0 639 0 626 0C613 0 600 0 587 0C574 0 561 0 548 0C535 0 522 0 509 0C496 0 483 0 469.8 0C456.7 0 443.3 0 430.2 0C417 0 404 0 391 0C378 0 365 0 352 0C339 0 326 0 313 0C300 0 287 0 274 0C261 0 248 0 235 0C222 0 209 0 196 0C183 0 170 0 156.8 0C143.7 0 130.3 0 117.2 0C104 0 91 0 78 0C65 0 52 0 39 0C26 0 13 0 6.5 0L0 0Z" fill="#1f2157"></path><path d="M0 97L6.5 94.3C13 91.7 26 86.3 39 86.2C52 86 65 91 78 94.5C91 98 104 100 117.2 101.7C130.3 103.3 143.7 104.7 156.8 101.2C170 97.7 183 89.3 196 86.2C209 83 222 85 235 84.7C248 84.3 261 81.7 274 83.7C287 85.7 300 92.3 313 93.7C326 95 339 91 352 88.5C365 86 378 85 391 84.8C404 84.7 417 85.3 430.2 83.7C443.3 82 456.7 78 469.8 79.3C483 80.7 496 87.3 509 89.5C522 91.7 535 89.3 548 91C561 92.7 574 98.3 587 99.8C600 101.3 613 98.7 626 96.3C639 94 652 92 665 93.2C678 94.3 691 98.7 704 97.5C717 96.3 730 89.7 743.2 87C756.3 84.3 769.7 85.7 782.8 85.5C796 85.3 809 83.7 822 84.7C835 85.7 848 89.3 861 88.8C874 88.3 887 83.7 893.5 81.3L900 79L900 0L893.5 0C887 0 874 0 861 0C848 0 835 0 822 0C809 0 796 0 782.8 0C769.7 0 756.3 0 743.2 0C730 0 717 0 704 0C691 0 678 0 665 0C652 0 639 0 626 0C613 0 600 0 587 0C574 0 561 0 548 0C535 0 522 0 509 0C496 0 483 0 469.8 0C456.7 0 443.3 0 430.2 0C417 0 404 0 391 0C378 0 365 0 352 0C339 0 326 0 313 0C300 0 287 0 274 0C261 0 248 0 235 0C222 0 209 0 196 0C183 0 170 0 156.8 0C143.7 0 130.3 0 117.2 0C104 0 91 0 78 0C65 0 52 0 39 0C26 0 13 0 6.5 0L0 0Z" fill="#1b1d51"></path><path d="M0 58L6.5 60.5C13 63 26 68 39 72C52 76 65 79 78 79.5C91 80 104 78 117.2 75.8C130.3 73.7 143.7 71.3 156.8 71.3C170 71.3 183 73.7 196 75.3C209 77 222 78 235 79.3C248 80.7 261 82.3 274 81.2C287 80 300 76 313 75.5C326 75 339 78 352 78C365 78 378 75 391 70.7C404 66.3 417 60.7 430.2 58.2C443.3 55.7 456.7 56.3 469.8 61.3C483 66.3 496 75.7 509 77.5C522 79.3 535 73.7 548 74.7C561 75.7 574 83.3 587 86.7C600 90 613 89 626 88.7C639 88.3 652 88.7 665 85.5C678 82.3 691 75.7 704 73.5C717 71.3 730 73.7 743.2 72.5C756.3 71.3 769.7 66.7 782.8 68C796 69.3 809 76.7 822 78.5C835 80.3 848 76.7 861 71.8C874 67 887 61 893.5 58L900 55L900 0L893.5 0C887 0 874 0 861 0C848 0 835 0 822 0C809 0 796 0 782.8 0C769.7 0 756.3 0 743.2 0C730 0 717 0 704 0C691 0 678 0 665 0C652 0 639 0 626 0C613 0 600 0 587 0C574 0 561 0 548 0C535 0 522 0 509 0C496 0 483 0 469.8 0C456.7 0 443.3 0 430.2 0C417 0 404 0 391 0C378 0 365 0 352 0C339 0 326 0 313 0C300 0 287 0 274 0C261 0 248 0 235 0C222 0 209 0 196 0C183 0 170 0 156.8 0C143.7 0 130.3 0 117.2 0C104 0 91 0 78 0C65 0 52 0 39 0C26 0 13 0 6.5 0L0 0Z" fill="#1a1c4d"></path><path d="M0 59L6.5 57.2C13 55.3 26 51.7 39 54.2C52 56.7 65 65.3 78 69.7C91 74 104 74 117.2 73C130.3 72 143.7 70 156.8 69.2C170 68.3 183 68.7 196 64.5C209 60.3 222 51.7 235 49C248 46.3 261 49.7 274 50C287 50.3 300 47.7 313 45.8C326 44 339 43 352 43.2C365 43.3 378 44.7 391 48.7C404 52.7 417 59.3 430.2 60.5C443.3 61.7 456.7 57.3 469.8 57C483 56.7 496 60.3 509 63.2C522 66 535 68 548 68.8C561 69.7 574 69.3 587 66.7C600 64 613 59 626 59.8C639 60.7 652 67.3 665 65.8C678 64.3 691 54.7 704 49.5C717 44.3 730 43.7 743.2 44.8C756.3 46 769.7 49 782.8 51C796 53 809 54 822 55.3C835 56.7 848 58.3 861 59.2C874 60 887 60 893.5 60L900 60L900 0L893.5 0C887 0 874 0 861 0C848 0 835 0 822 0C809 0 796 0 782.8 0C769.7 0 756.3 0 743.2 0C730 0 717 0 704 0C691 0 678 0 665 0C652 0 639 0 626 0C613 0 600 0 587 0C574 0 561 0 548 0C535 0 522 0 509 0C496 0 483 0 469.8 0C456.7 0 443.3 0 430.2 0C417 0 404 0 391 0C378 0 365 0 352 0C339 0 326 0 313 0C300 0 287 0 274 0C261 0 248 0 235 0C222 0 209 0 196 0C183 0 170 0 156.8 0C143.7 0 130.3 0 117.2 0C104 0 91 0 78 0C65 0 52 0 39 0C26 0 13 0 6.5 0L0 0Z" fill="#191b49"></path><path d="M0 36L6.5 34.7C13 33.3 26 30.7 39 30C52 29.3 65 30.7 78 34.7C91 38.7 104 45.3 117.2 46.5C130.3 47.7 143.7 43.3 156.8 42.2C170 41 183 43 196 43.8C209 44.7 222 44.3 235 44.8C248 45.3 261 46.7 274 46.2C287 45.7 300 43.3 313 42.2C326 41 339 41 352 40.7C365 40.3 378 39.7 391 40.5C404 41.3 417 43.7 430.2 42.5C443.3 41.3 456.7 36.7 469.8 36.3C483 36 496 40 509 44.5C522 49 535 54 548 53.3C561 52.7 574 46.3 587 44.7C600 43 613 46 626 43.8C639 41.7 652 34.3 665 36.2C678 38 691 49 704 50C717 51 730 42 743.2 41.3C756.3 40.7 769.7 48.3 782.8 49C796 49.7 809 43.3 822 39.5C835 35.7 848 34.3 861 36.2C874 38 887 43 893.5 45.5L900 48L900 0L893.5 0C887 0 874 0 861 0C848 0 835 0 822 0C809 0 796 0 782.8 0C769.7 0 756.3 0 743.2 0C730 0 717 0 704 0C691 0 678 0 665 0C652 0 639 0 626 0C613 0 600 0 587 0C574 0 561 0 548 0C535 0 522 0 509 0C496 0 483 0 469.8 0C456.7 0 443.3 0 430.2 0C417 0 404 0 391 0C378 0 365 0 352 0C339 0 326 0 313 0C300 0 287 0 274 0C261 0 248 0 235 0C222 0 209 0 196 0C183 0 170 0 156.8 0C143.7 0 130.3 0 117.2 0C104 0 91 0 78 0C65 0 52 0 39 0C26 0 13 0 6.5 0L0 0Z" fill="#171a46"></path><path d="M0 38L6.5 34.8C13 31.7 26 25.3 39 22.2C52 19 65 19 78 21.5C91 24 104 29 117.2 30.5C130.3 32 143.7 30 156.8 27.7C170 25.3 183 22.7 196 23.5C209 24.3 222 28.7 235 30.7C248 32.7 261 32.3 274 32.8C287 33.3 300 34.7 313 32C326 29.3 339 22.7 352 23.7C365 24.7 378 33.3 391 34.8C404 36.3 417 30.7 430.2 30.3C443.3 30 456.7 35 469.8 36.5C483 38 496 36 509 31.8C522 27.7 535 21.3 548 19C561 16.7 574 18.3 587 21.2C600 24 613 28 626 31.2C639 34.3 652 36.7 665 33.5C678 30.3 691 21.7 704 20C717 18.3 730 23.7 743.2 27.3C756.3 31 769.7 33 782.8 31.5C796 30 809 25 822 24.5C835 24 848 28 861 29C874 30 887 28 893.5 27L900 26L900 0L893.5 0C887 0 874 0 861 0C848 0 835 0 822 0C809 0 796 0 782.8 0C769.7 0 756.3 0 743.2 0C730 0 717 0 704 0C691 0 678 0 665 0C652 0 639 0 626 0C613 0 600 0 587 0C574 0 561 0 548 0C535 0 522 0 509 0C496 0 483 0 469.8 0C456.7 0 443.3 0 430.2 0C417 0 404 0 391 0C378 0 365 0 352 0C339 0 326 0 313 0C300 0 287 0 274 0C261 0 248 0 235 0C222 0 209 0 196 0C183 0 170 0 156.8 0C143.7 0 130.3 0 117.2 0C104 0 91 0 78 0C65 0 52 0 39 0C26 0 13 0 6.5 0L0 0Z" fill="#161942"></path><path d="M0 18L6.5 16C13 14 26 10 39 7C52 4 65 2 78 3.3C91 4.7 104 9.3 117.2 12.3C130.3 15.3 143.7 16.7 156.8 14.3C170 12 183 6 196 6.7C209 7.3 222 14.7 235 14.7C248 14.7 261 7.3 274 5.8C287 4.3 300 8.7 313 13.2C326 17.7 339 22.3 352 22.2C365 22 378 17 391 17.3C404 17.7 417 23.3 430.2 23.3C443.3 23.3 456.7 17.7 469.8 15C483 12.3 496 12.7 509 15.2C522 17.7 535 22.3 548 20.3C561 18.3 574 9.7 587 8.2C600 6.7 613 12.3 626 13.5C639 14.7 652 11.3 665 10.8C678 10.3 691 12.7 704 15C717 17.3 730 19.7 743.2 18C756.3 16.3 769.7 10.7 782.8 8.2C796 5.7 809 6.3 822 10.2C835 14 848 21 861 21.2C874 21.3 887 14.7 893.5 11.3L900 8L900 0L893.5 0C887 0 874 0 861 0C848 0 835 0 822 0C809 0 796 0 782.8 0C769.7 0 756.3 0 743.2 0C730 0 717 0 704 0C691 0 678 0 665 0C652 0 639 0 626 0C613 0 600 0 587 0C574 0 561 0 548 0C535 0 522 0 509 0C496 0 483 0 469.8 0C456.7 0 443.3 0 430.2 0C417 0 404 0 391 0C378 0 365 0 352 0C339 0 326 0 313 0C300 0 287 0 274 0C261 0 248 0 235 0C222 0 209 0 196 0C183 0 170 0 156.8 0C143.7 0 130.3 0 117.2 0C104 0 91 0 78 0C65 0 52 0 39 0C26 0 13 0 6.5 0L0 0Z" fill="#15183e"></path></svg>